<mxfile host="65bd71144e">
    <diagram id="SDO9VcvzDm8rDSZ7Jsch" name="Page-1">
        <mxGraphModel dx="1458" dy="292" grid="1" gridSize="10" guides="1" tooltips="1" connect="1" arrows="1" fold="1" page="1" pageScale="1" pageWidth="827" pageHeight="1169" background="none" math="0" shadow="0">
            <root>
                <mxCell id="0"/>
                <mxCell id="1" parent="0"/>
                <mxCell id="51" style="edgeStyle=none;html=1;" parent="1" source="3" target="24" edge="1">
                    <mxGeometry relative="1" as="geometry"/>
                </mxCell>
                <mxCell id="3" value="User" style="swimlane;fillColor=none;strokeColor=#000000;" parent="1" vertex="1">
                    <mxGeometry x="-770" y="230" width="201" height="160" as="geometry">
                        <mxRectangle x="-770" y="50" width="70" height="30" as="alternateBounds"/>
                    </mxGeometry>
                </mxCell>
                <mxCell id="4" value="name: string" style="text;html=1;align=center;verticalAlign=middle;resizable=0;points=[];autosize=1;strokeColor=none;fillColor=none;" parent="3" vertex="1">
                    <mxGeometry x="3" y="25" width="90" height="30" as="geometry"/>
                </mxCell>
                <mxCell id="5" value="email: string" style="text;html=1;align=center;verticalAlign=middle;resizable=0;points=[];autosize=1;strokeColor=none;fillColor=none;" parent="3" vertex="1">
                    <mxGeometry x="1" y="40" width="90" height="30" as="geometry"/>
                </mxCell>
                <mxCell id="6" value="password: string" style="text;html=1;align=center;verticalAlign=middle;resizable=0;points=[];autosize=1;strokeColor=none;fillColor=none;" parent="3" vertex="1">
                    <mxGeometry x="2" y="56" width="110" height="30" as="geometry"/>
                </mxCell>
                <mxCell id="7" value="role: User,Admin" style="text;html=1;align=center;verticalAlign=middle;resizable=0;points=[];autosize=1;strokeColor=none;fillColor=none;" parent="3" vertex="1">
                    <mxGeometry x="2.5" y="72" width="110" height="30" as="geometry"/>
                </mxCell>
                <mxCell id="10" value="refreshToken: string" style="text;html=1;align=center;verticalAlign=middle;resizable=0;points=[];autosize=1;strokeColor=none;fillColor=none;" parent="3" vertex="1">
                    <mxGeometry y="88" width="130" height="30" as="geometry"/>
                </mxCell>
                <mxCell id="11" value="forgotPasswordToken: string" style="text;html=1;align=center;verticalAlign=middle;resizable=0;points=[];autosize=1;strokeColor=none;fillColor=none;" parent="3" vertex="1">
                    <mxGeometry x="2" y="103" width="170" height="30" as="geometry"/>
                </mxCell>
                <mxCell id="12" value="forgotPasswordTokenExpiry: Date" style="text;html=1;align=center;verticalAlign=middle;resizable=0;points=[];autosize=1;strokeColor=none;fillColor=none;" parent="3" vertex="1">
                    <mxGeometry x="1" y="120" width="200" height="30" as="geometry"/>
                </mxCell>
                <mxCell id="21" value="Resume" style="swimlane;fillColor=none;strokeColor=#000000;" parent="1" vertex="1">
                    <mxGeometry x="-490" y="240" width="160" height="168" as="geometry">
                        <mxRectangle x="-770" y="50" width="70" height="30" as="alternateBounds"/>
                    </mxGeometry>
                </mxCell>
                <mxCell id="22" value="userid: _id" style="text;html=1;align=center;verticalAlign=middle;resizable=0;points=[];autosize=1;strokeColor=none;fillColor=none;" parent="21" vertex="1">
                    <mxGeometry x="4" y="24" width="80" height="30" as="geometry"/>
                </mxCell>
                <mxCell id="23" value="title: string" style="text;html=1;align=center;verticalAlign=middle;resizable=0;points=[];autosize=1;strokeColor=none;fillColor=none;" parent="21" vertex="1">
                    <mxGeometry x="3" y="40" width="80" height="30" as="geometry"/>
                </mxCell>
                <mxCell id="24" value="sectrion: _id" style="text;html=1;align=center;verticalAlign=middle;resizable=0;points=[];autosize=1;strokeColor=none;fillColor=none;" parent="21" vertex="1">
                    <mxGeometry x="3" y="55" width="90" height="30" as="geometry"/>
                </mxCell>
                <mxCell id="25" value="template?: string" style="text;html=1;align=center;verticalAlign=middle;resizable=0;points=[];autosize=1;strokeColor=none;fillColor=none;" parent="21" vertex="1">
                    <mxGeometry x="2.5" y="71" width="110" height="30" as="geometry"/>
                </mxCell>
                <mxCell id="56" value="personalInfo: _id" style="text;html=1;align=center;verticalAlign=middle;resizable=0;points=[];autosize=1;strokeColor=none;fillColor=none;" vertex="1" parent="21">
                    <mxGeometry x="3.5" y="90" width="110" height="30" as="geometry"/>
                </mxCell>
                <mxCell id="57" value="education: _id" style="text;html=1;align=center;verticalAlign=middle;resizable=0;points=[];autosize=1;strokeColor=none;fillColor=none;" vertex="1" parent="21">
                    <mxGeometry x="1.5" y="107" width="100" height="30" as="geometry"/>
                </mxCell>
                <mxCell id="58" value="skills: string[]" style="text;html=1;align=center;verticalAlign=middle;resizable=0;points=[];autosize=1;strokeColor=none;fillColor=none;" vertex="1" parent="21">
                    <mxGeometry x="4.5" y="138" width="90" height="30" as="geometry"/>
                </mxCell>
                <mxCell id="59" value="experience: _id" style="text;html=1;align=center;verticalAlign=middle;resizable=0;points=[];autosize=1;strokeColor=none;fillColor=none;" vertex="1" parent="21">
                    <mxGeometry x="5.5" y="123" width="100" height="30" as="geometry"/>
                </mxCell>
                <mxCell id="53" style="edgeStyle=none;html=1;exitX=0.896;exitY=1.011;exitDx=0;exitDy=0;exitPerimeter=0;" parent="1" source="58" target="39" edge="1">
                    <mxGeometry relative="1" as="geometry">
                        <mxPoint x="-141.17041198501875" y="362.5" as="sourcePoint"/>
                    </mxGeometry>
                </mxCell>
                <mxCell id="54" style="edgeStyle=none;html=1;exitX=0.896;exitY=1.078;exitDx=0;exitDy=0;exitPerimeter=0;" parent="1" source="58" target="45" edge="1">
                    <mxGeometry relative="1" as="geometry">
                        <mxPoint x="-189.22800718132862" y="362.5" as="sourcePoint"/>
                    </mxGeometry>
                </mxCell>
                <mxCell id="55" style="edgeStyle=none;html=1;entryX=0.43;entryY=0;entryDx=0;entryDy=0;entryPerimeter=0;exitX=0.785;exitY=1.178;exitDx=0;exitDy=0;exitPerimeter=0;" parent="1" source="58" target="34" edge="1">
                    <mxGeometry relative="1" as="geometry">
                        <mxPoint x="-230" y="345.5508072174739" as="sourcePoint"/>
                    </mxGeometry>
                </mxCell>
                <mxCell id="34" value="Personal Info" style="swimlane;fillColor=none;strokeColor=#000000;" parent="1" vertex="1">
                    <mxGeometry x="-640" y="518.5" width="160" height="115" as="geometry">
                        <mxRectangle x="-770" y="50" width="70" height="30" as="alternateBounds"/>
                    </mxGeometry>
                </mxCell>
                <mxCell id="35" value="fullname:string" style="text;html=1;align=center;verticalAlign=middle;resizable=0;points=[];autosize=1;strokeColor=none;fillColor=none;" parent="34" vertex="1">
                    <mxGeometry x="9" y="24" width="100" height="30" as="geometry"/>
                </mxCell>
                <mxCell id="36" value="email: string" style="text;html=1;align=center;verticalAlign=middle;resizable=0;points=[];autosize=1;strokeColor=none;fillColor=none;" parent="34" vertex="1">
                    <mxGeometry x="7" y="41" width="90" height="30" as="geometry"/>
                </mxCell>
                <mxCell id="38" value="phone: string" style="text;html=1;align=center;verticalAlign=middle;resizable=0;points=[];autosize=1;strokeColor=none;fillColor=none;" parent="1" vertex="1">
                    <mxGeometry x="-631" y="575.5" width="90" height="30" as="geometry"/>
                </mxCell>
                <mxCell id="37" value="address: string" style="text;html=1;align=center;verticalAlign=middle;resizable=0;points=[];autosize=1;strokeColor=none;fillColor=none;" parent="1" vertex="1">
                    <mxGeometry x="-631" y="590.5" width="100" height="30" as="geometry"/>
                </mxCell>
                <mxCell id="39" value="Experience" style="swimlane;fillColor=none;strokeColor=#000000;" parent="1" vertex="1">
                    <mxGeometry x="-189" y="504" width="160" height="136" as="geometry">
                        <mxRectangle x="-770" y="50" width="70" height="30" as="alternateBounds"/>
                    </mxGeometry>
                </mxCell>
                <mxCell id="40" value="company:string" style="text;html=1;align=center;verticalAlign=middle;resizable=0;points=[];autosize=1;strokeColor=none;fillColor=none;" parent="39" vertex="1">
                    <mxGeometry x="5" y="24" width="100" height="30" as="geometry"/>
                </mxCell>
                <mxCell id="41" value="position: string" style="text;html=1;align=center;verticalAlign=middle;resizable=0;points=[];autosize=1;strokeColor=none;fillColor=none;" parent="39" vertex="1">
                    <mxGeometry x="3" y="40" width="100" height="30" as="geometry"/>
                </mxCell>
                <mxCell id="42" value="startDate: Date" style="text;html=1;align=center;verticalAlign=middle;resizable=0;points=[];autosize=1;strokeColor=none;fillColor=none;" parent="1" vertex="1">
                    <mxGeometry x="-185" y="561" width="100" height="30" as="geometry"/>
                </mxCell>
                <mxCell id="43" value="description: string" style="text;html=1;align=center;verticalAlign=middle;resizable=0;points=[];autosize=1;strokeColor=none;fillColor=none;" parent="1" vertex="1">
                    <mxGeometry x="-190" y="595" width="120" height="30" as="geometry"/>
                </mxCell>
                <mxCell id="44" value="endDate: Date" style="text;html=1;align=center;verticalAlign=middle;resizable=0;points=[];autosize=1;strokeColor=none;fillColor=none;" parent="1" vertex="1">
                    <mxGeometry x="-187" y="578" width="100" height="30" as="geometry"/>
                </mxCell>
                <mxCell id="45" value="Education" style="swimlane;fillColor=none;strokeColor=#000000;" parent="1" vertex="1">
                    <mxGeometry x="-420" y="518.5" width="160" height="130" as="geometry">
                        <mxRectangle x="-770" y="50" width="70" height="30" as="alternateBounds"/>
                    </mxGeometry>
                </mxCell>
                <mxCell id="46" value="school:string" style="text;html=1;align=center;verticalAlign=middle;resizable=0;points=[];autosize=1;strokeColor=none;fillColor=none;" parent="45" vertex="1">
                    <mxGeometry x="3" y="24" width="90" height="30" as="geometry"/>
                </mxCell>
                <mxCell id="48" value="startDate: Date" style="text;html=1;align=center;verticalAlign=middle;resizable=0;points=[];autosize=1;strokeColor=none;fillColor=none;" parent="1" vertex="1">
                    <mxGeometry x="-416" y="575.5" width="100" height="30" as="geometry"/>
                </mxCell>
                <mxCell id="50" value="endDate: Date" style="text;html=1;align=center;verticalAlign=middle;resizable=0;points=[];autosize=1;strokeColor=none;fillColor=none;" parent="1" vertex="1">
                    <mxGeometry x="-418" y="592.5" width="100" height="30" as="geometry"/>
                </mxCell>
                <mxCell id="47" value="degree: string" style="text;html=1;align=center;verticalAlign=middle;resizable=0;points=[];autosize=1;strokeColor=none;fillColor=none;" parent="1" vertex="1">
                    <mxGeometry x="-419" y="558.5" width="100" height="30" as="geometry"/>
                </mxCell>
            </root>
        </mxGraphModel>
    </diagram>
</mxfile>